<?xml version="1.0" standalone="no"?>
<!DOCTYPE svg PUBLIC "-//W3C//DTD SVG 20010904//EN"
 "http://www.w3.org/TR/2001/REC-SVG-20010904/DTD/svg10.dtd">
<svg version="1.0" xmlns="http://www.w3.org/2000/svg"
 width="310.000000pt" height="310.000000pt" viewBox="0 0 310.000000 310.000000"
 preserveAspectRatio="xMidYMid meet">
<metadata>
Created by potrace 1.11, written by Peter Selinger 2001-2013
</metadata>
<g transform="translate(0.000000,310.000000) scale(0.100000,-0.100000)"
fill="#000000" stroke="none">
<path d="M0 1550 l0 -1550 1550 0 1550 0 0 1550 0 1550 -1550 0 -1550 0 0
-1550z m2405 726 c8 -40 3 -242 -6 -250 -3 -4 -55 -11 -115 -17 -60 -6 -115
-13 -122 -15 -8 -2 6 -20 35 -43 104 -81 173 -185 198 -293 19 -82 20 -234 3
-244 -19 -12 -176 -16 -238 -7 l-55 8 3 60 c14 256 -115 429 -358 481 -50 11
-177 14 -557 14 -382 0 -494 3 -500 13 -11 17 -17 206 -8 272 l6 55 854 0 854
0 6 -34z m-1433 -581 c14 -5 16 -16 11 -53 -8 -72 14 -199 46 -267 51 -108
142 -177 288 -217 74 -20 105 -21 579 -26 l502 -4 6 -30 c8 -40 8 -227 0 -267
l-7 -31 -852 0 -853 0 -6 23 c-11 43 -7 232 7 249 13 18 127 38 215 38 l47 1
-30 21 c-55 39 -160 153 -187 204 -15 28 -34 80 -43 115 -15 67 -20 215 -7
236 4 6 21 13 37 16 38 7 225 0 247 -8z"/>
</g>
</svg>
